<?xml version="1.0" encoding="UTF-8"?>
<!DOCTYPE svg PUBLIC "-//W3C//DTD SVG 1.1//EN" "http://www.w3.org/Graphics/SVG/1.1/DTD/svg11.dtd">
<!-- Creator: CorelDRAW X6 -->
<svg xmlns="http://www.w3.org/2000/svg" xml:space="preserve" width="210mm" height="297mm" version="1.1" style="shape-rendering:geometricPrecision; text-rendering:geometricPrecision; image-rendering:optimizeQuality; fill-rule:evenodd; clip-rule:evenodd"
viewBox="0 0 21000 29700"
 xmlns:xlink="http://www.w3.org/1999/xlink">
 <defs>
  <style type="text/css">
   <![CDATA[
    .fil0 {fill:#fff}
    .fil1 {fill:#fff;fill-rule:nonzero}
   ]]>
  </style>
 </defs>
 <g id="图层_x0020_1">
  <metadata id="CorelCorpID_0Corel-Layer"/>
  <path class="fil0" d="M7496 9478l0 453c20,48 22,201 31,269 34,257 88,476 169,716 274,805 867,1509 1651,1901 610,305 1205,401 1980,367 712,-31 1339,-193 1910,-445 469,-207 797,-460 1164,-766 28,-23 49,-49 76,-73 53,-46 99,-91 149,-140 4,-4 178,-173 75,-131l-184 116c-372,223 -800,418 -1217,554 -1433,468 -3133,534 -4311,-541 -168,-153 -340,-382 -460,-574 -433,-693 -527,-1597 -261,-2397 628,-1889 2968,-2578 4511,-1350 382,304 770,765 964,1394 209,681 242,1414 -197,1878 -187,198 -462,350 -860,305 -331,-38 -554,-184 -730,-443 -26,28 -40,52 -64,78 -159,173 -401,314 -634,382 -1002,294 -1926,-600 -1771,-1593 93,-596 571,-1066 1161,-1170 139,-25 997,-34 1134,-14 164,24 304,117 371,207 106,140 136,226 136,446 0,234 -19,950 28,1133 101,393 509,460 723,330 495,-301 248,-1328 -4,-1758 -118,-202 -217,-344 -376,-500 -28,-28 -43,-44 -73,-76 -25,-27 -48,-41 -75,-65 -1233,-1084 -3173,-523 -3688,1018 -218,654 -124,1368 213,1870 41,61 78,120 123,176l132 157c50,59 86,94 143,146 257,234 545,417 910,544 584,203 1460,160 2089,45 616,-113 1225,-356 1695,-634 1359,-804 2404,-2187 2629,-3764 11,-78 46,-498 56,-524l0 -556c-20,-47 -30,-293 -41,-371 -71,-508 -172,-801 -393,-1247 -90,-182 -142,-13 -187,64 -176,302 -267,459 -488,733 -122,150 -259,285 -411,408 -222,180 -491,339 -769,452 -99,40 -529,208 -614,185 -22,-62 31,-110 60,-161 94,-163 168,-322 236,-500 52,-137 199,-647 172,-803 -57,-37 -71,-9 -106,30 -174,195 -455,413 -685,545 -302,173 -631,308 -1022,376 -831,144 -1716,-85 -2604,192 -776,242 -1283,652 -1675,1121 -202,243 -375,534 -524,874 -113,257 -186,541 -230,822 -11,67 -21,267 -39,309zm2540 157l0 47c0,436 383,827 816,827l65 0c445,0 816,-403 816,-846l0 -783c0,-42 -25,-65 -70,-65l-811 0c-426,0 -816,389 -816,820z"/>
  <path class="fil1" d="M7568 15505c9,114 -19,212 -83,293 -64,81 -155,148 -273,200 -118,52 -257,91 -418,116 -161,25 -332,38 -514,38 -77,0 -178,1 -305,1 -126,1 -256,-10 -390,-33 -9,10 -17,19 -26,28 -9,9 -16,18 -21,28 -11,12 -23,13 -36,4 -13,-9 -22,-21 -28,-36 -9,31 -14,52 -15,64 -1,12 -9,20 -23,26 -11,4 -23,14 -34,29 -11,15 -21,24 -30,26 -6,-14 -9,-40 -11,-78 -1,-39 -4,-89 -6,-151 -108,-39 -201,-95 -279,-170 -78,-74 -129,-174 -151,-300 102,43 242,78 418,107 -3,-73 -5,-149 -6,-228 -1,-78 -5,-157 -11,-236 -34,0 -69,0 -104,1 -35,1 -73,2 -113,4 -40,-17 -71,-42 -94,-72 -20,-25 -33,-57 -38,-97 -6,-40 10,-87 47,-143 11,-8 47,-15 107,-23l-4 -32 51 -9c14,-4 33,-7 55,-10 23,-3 48,-7 77,-13 -6,-50 -10,-99 -13,-146 -3,-47 -7,-92 -13,-135 -48,0 -81,-4 -98,-12 -17,-8 -33,-23 -49,-45 -16,-22 -28,-46 -36,-71 -9,-25 -12,-51 -11,-77 1,-26 9,-48 23,-65 11,0 23,-1 34,-3 11,-2 24,-3 38,-4 14,-1 31,-3 51,-7 -6,-17 -11,-29 -17,-35 60,-15 119,-27 179,-35 51,-6 104,-8 160,-6 55,2 107,14 156,35 97,-8 199,-14 307,-19 108,-5 214,-7 320,-7 105,0 205,3 298,9 94,6 178,15 251,29 34,17 63,41 85,70 23,29 40,61 53,97 13,36 22,72 28,110 6,38 9,74 9,109 -9,25 -28,52 -60,81 -26,25 -63,53 -113,83 -50,30 -116,60 -198,91 114,19 222,45 326,77 104,32 195,73 273,123 78,50 141,110 190,178 48,69 77,149 85,242zm-1713 -971c0,33 1,65 2,96 1,31 2,62 2,93 125,-29 244,-60 356,-94 112,-34 201,-69 266,-106 -14,-6 -40,-9 -79,-10 -38,-1 -87,-1 -145,1 -58,2 -122,5 -192,9 -70,4 -140,8 -211,12zm1185 971c0,-48 -41,-92 -124,-130 -34,-17 -80,-34 -136,-51 -57,-16 -128,-31 -213,-45 -85,-14 -186,-25 -303,-33 -117,-9 -253,-15 -409,-19 -6,118 -14,218 -26,301 -11,83 -23,152 -34,206 205,4 417,-11 637,-43 220,-33 423,-95 607,-185zm2709 125l-60 81 26 9c-6,4 -14,9 -26,14 -20,10 -37,16 -51,20 -9,0 -55,14 -139,41 -84,27 -190,65 -318,113 -128,48 -271,107 -430,175 -159,69 -321,144 -486,228 -20,12 -49,9 -87,-7 -38,-16 -77,-40 -117,-71 -40,-31 -77,-67 -111,-109 -34,-42 -60,-83 -79,-123 -18,-41 -25,-78 -19,-112 6,-34 31,-58 77,-74 20,-10 40,-17 60,-23 8,-87 19,-184 32,-290 13,-106 24,-215 34,-328 10,-112 18,-223 23,-332 6,-109 8,-211 6,-304 -1,-94 -8,-176 -19,-246 -11,-71 -28,-122 -51,-155 139,-41 266,-57 379,-49 45,4 91,13 136,28 45,14 87,37 124,68 37,31 66,71 87,120 21,49 32,112 32,187 0,89 -6,182 -19,280 -13,98 -28,195 -47,291 -18,97 -40,190 -64,281 -24,91 -48,174 -70,249 97,-29 195,-57 296,-84 101,-27 202,-51 305,-71 102,-20 202,-35 298,-45 97,-10 189,-13 277,-9 3,2 -1,4 -11,7 -10,3 -21,6 -32,10 -11,4 -22,8 -32,12 -10,4 -13,7 -11,9 3,4 11,7 23,9 13,2 27,4 43,7 16,3 30,6 43,9 13,3 19,6 19,10 3,4 1,10 -4,17 -6,8 -11,15 -17,23 -9,8 -17,16 -26,26l4 107zm2283 258c0,6 4,16 11,30 7,14 14,29 21,45 7,15 14,30 21,45 7,14 11,24 11,28 -3,21 -7,39 -13,54 -6,14 -11,28 -17,39 -6,8 -15,14 -28,19 -13,5 -22,9 -28,13 -6,6 -8,10 -6,13 1,3 -1,6 -6,10 -6,4 -13,7 -21,9 -9,2 -16,5 -21,9 -14,4 -30,6 -47,6l-21 0c-45,0 -107,-39 -183,-117 -77,-78 -159,-181 -247,-309 -14,4 -29,8 -45,12 -16,4 -32,8 -49,12 -48,-4 -111,-4 -188,-1 -77,3 -159,7 -247,13 -88,6 -177,13 -266,22 -89,9 -170,16 -241,22 -48,64 -99,127 -151,190 -53,63 -107,125 -164,187 -11,4 -18,0 -21,-12 -3,-12 -11,-21 -26,-29 -6,-4 -16,-3 -30,1 -14,5 -26,4 -34,-1 -3,-2 -6,-8 -9,-19 -3,-11 -6,-21 -9,-30l-9 -41c-11,0 -23,-3 -34,-9 -23,-8 -38,-21 -47,-41 -3,-4 -4,-11 -2,-22 1,-11 4,-24 6,-39 3,-15 6,-34 8,-55 -8,8 -17,14 -26,17 -17,8 -27,8 -30,0 -6,-19 -9,-38 -11,-57 -1,-18 1,-35 6,-51 20,-41 60,-114 121,-222 61,-107 127,-235 198,-384 71,-149 137,-314 198,-494 61,-181 102,-365 121,-552 170,-15 308,-21 411,-16 104,5 181,18 232,39 82,-2 157,8 224,30 67,22 106,65 117,129 9,52 22,124 41,216 18,92 49,201 92,329 43,128 102,272 177,435 75,162 175,341 300,536 3,8 2,11 -2,9 -4,-2 -10,-5 -17,-10 -7,-5 -13,-9 -17,-12 -4,-3 -6,-1 -6,4zm-1338 -429c91,-2 184,-1 279,1 95,3 188,7 279,13 -51,-83 -101,-168 -149,-254 -48,-86 -94,-172 -136,-259 -45,91 -90,177 -134,259 -44,82 -90,162 -138,239zm4265 -81c17,29 26,61 26,96 0,122 -40,228 -119,320 -80,92 -184,168 -313,229 -129,61 -277,107 -443,138 -166,31 -335,46 -507,45 -172,-1 -340,-17 -505,-49 -165,-32 -310,-80 -437,-143 -126,-64 -228,-143 -305,-239 -77,-96 -112,-208 -107,-338 3,-118 30,-221 81,-309 51,-88 118,-165 200,-232 82,-67 178,-125 288,-174 109,-49 225,-94 347,-135 -85,-2 -166,-1 -243,1 -77,3 -146,6 -207,9 -61,3 -113,4 -156,4 -43,0 -72,-5 -89,-14 -51,-29 -87,-62 -107,-99 -20,-37 -31,-74 -32,-112 -1,-38 3,-74 13,-109 10,-35 22,-66 36,-93 224,15 456,27 695,35 205,6 435,6 690,1 256,-5 510,-21 763,-48 43,46 80,90 111,130 26,37 46,73 62,110 16,37 14,69 -6,96 -6,10 -17,17 -34,23 9,37 7,70 -4,99 -11,29 -41,43 -89,41 -185,0 -362,13 -533,39 -171,26 -330,61 -479,104 -149,43 -284,93 -405,148 -121,55 -224,112 -311,170 -87,58 -154,114 -202,168 -48,54 -72,102 -72,145 0,77 52,140 156,188 104,48 233,82 388,101 155,19 322,26 503,20 180,-6 348,-23 503,-52 155,-29 284,-68 388,-117 104,-49 156,-108 156,-175l0 -3c-23,-52 -71,-93 -145,-123 -74,-30 -155,-53 -243,-70 -88,-16 -174,-28 -258,-33 -84,-6 -147,-9 -190,-9l-4 -38 -81 -23c17,0 38,-2 64,-6 23,-2 48,-4 77,-7 28,-3 61,-6 98,-10 -20,-4 -41,-7 -64,-9 -23,-2 -44,-3 -64,-3 -26,0 -50,1 -72,3l-124 -14 286 -17 -192 -23 -119 -20 166 -26c-23,-4 -45,-9 -68,-14 -20,-4 -41,-8 -64,-13 -23,-5 -43,-11 -60,-19 34,-6 95,-13 183,-20 88,-8 190,-6 307,6 117,12 239,39 367,81 128,43 247,111 358,206 80,72 128,132 145,183zm1213 -956c0,14 -9,50 -28,109 -18,59 -38,132 -58,220 -20,88 -37,186 -51,293 -14,107 -18,216 -11,326 7,110 30,216 68,317 38,101 100,191 185,268 151,-35 271,-99 362,-191 91,-93 158,-199 200,-319 43,-120 63,-247 62,-381 -1,-134 -18,-261 -51,-381 -33,-120 -77,-225 -134,-314 -57,-90 -121,-151 -192,-184l30 -26c14,0 26,0 36,0 10,0 22,1 36,3 0,0 16,9 49,26 33,17 70,40 113,67 43,27 85,58 128,94 43,36 75,73 98,112 -20,-46 -48,-88 -85,-126 -37,-38 -73,-70 -109,-96 -36,-26 -66,-46 -92,-61 -26,-14 -37,-22 -34,-22 139,21 262,68 369,139 107,71 195,159 264,262 70,103 121,217 156,341 34,124 50,248 47,374 -3,126 -23,247 -62,365 -38,118 -97,222 -175,312 -78,90 -175,161 -290,213 -115,52 -251,75 -407,70 -207,-6 -383,-36 -526,-90 -143,-54 -263,-121 -358,-201 -95,-80 -169,-168 -222,-264 -53,-96 -92,-189 -117,-281 -26,-92 -41,-176 -45,-254 -4,-77 -6,-137 -6,-180 3,-64 12,-133 28,-209 16,-75 33,-145 53,-209 23,-75 48,-151 77,-226 -6,-15 -10,-29 -13,-41 -3,-10 -4,-19 -4,-29 0,-10 3,-16 9,-20 28,-17 82,-29 160,-35 78,-6 157,-2 237,10 80,13 150,36 211,71 61,35 92,84 92,148zm1959 -226c0,-6 4,-14 13,-23 9,-10 23,-16 43,-20 45,-8 104,-14 177,-17 72,-4 143,6 213,30 70,24 129,68 177,132 48,64 71,158 68,284 -6,141 -13,284 -23,429 -10,145 -22,277 -36,397 -14,139 -30,274 -47,406l-13 17c-6,6 -12,13 -19,22 -7,9 -16,19 -28,30 -6,8 -14,17 -23,29 -10,12 -19,24 -28,38 -11,15 -23,32 -34,49 -9,2 -18,5 -30,9 -20,8 -37,17 -51,29 -3,4 -6,8 -9,13 -3,5 -7,11 -13,19 -6,8 -10,16 -13,26l-34 -3 -51 55 -17 -6c-11,-4 -18,-6 -21,-6 -11,4 -21,11 -28,22 -7,11 -15,16 -23,16 -3,-14 -6,-48 -11,-104 -4,-56 -8,-125 -11,-207 -3,-82 -6,-175 -11,-278 -4,-103 -9,-210 -15,-320 -6,-110 -11,-220 -17,-330 -6,-110 -13,-213 -21,-309 -9,-96 -18,-181 -30,-255 -11,-74 -23,-132 -34,-172z"/>
 </g>
</svg>
